<svg width="48" height="48" viewBox="0 0 48 48" fill="none" xmlns="http://www.w3.org/2000/svg">
<g clip-path="url(#clip0_135_3)">
<path d="M5.0821 28.524C4.13482 23.9518 3.6614 21.6657 4.22784 19.7436C4.67513 18.2259 5.56244 16.8748 6.77748 15.8615C6.92932 15.7348 7.08833 15.6161 7.2563 15.504C8.78982 14.4799 11.0536 14.011 15.1746 13.1572C19.7469 12.2101 22.033 11.7364 23.9551 12.3029C25.4728 12.7502 26.8238 13.6375 27.8373 14.8527C29.1208 16.3916 29.5944 18.6777 30.5415 23.2498L31.3529 27.1667C31.4892 27.8242 31.6156 28.4345 31.7305 29.0032C32.4148 32.3889 32.6923 34.3014 32.2072 35.9471C31.76 37.4648 30.8726 38.8158 29.6575 39.8293C28.1187 41.1127 25.8325 41.5863 21.2603 42.5335C16.6882 43.4806 14.402 43.9543 12.4799 43.3878C10.9622 42.9405 9.61113 42.0532 8.59778 40.8381C7.69012 39.7498 7.18752 38.2878 6.636 35.9079" fill="white"/>
<path d="M5.0821 28.524C4.13482 23.9518 3.6614 21.6657 4.22784 19.7436C4.67513 18.2259 5.56244 16.8748 6.77748 15.8615C6.92932 15.7348 7.08833 15.6161 7.2563 15.504C8.78982 14.4799 11.0536 14.011 15.1746 13.1572C19.7469 12.2101 22.033 11.7364 23.9551 12.3029C25.4728 12.7502 26.8238 13.6375 27.8373 14.8527C29.1208 16.3916 29.5944 18.6777 30.5415 23.2498L31.3529 27.1667C31.4892 27.8242 31.6156 28.4345 31.7305 29.0032C32.4148 32.3889 32.6923 34.3014 32.2072 35.9471C31.76 37.4648 30.8726 38.8158 29.6575 39.8293C28.1187 41.1127 25.8325 41.5863 21.2603 42.5335C16.6882 43.4806 14.402 43.9543 12.4799 43.3878C10.9622 42.9405 9.61113 42.0532 8.59778 40.8381C7.69012 39.7498 7.18752 38.2878 6.636 35.9079" stroke="#1C274C" stroke-width="3" stroke-linecap="round"/>
<path d="M40.6232 25.2946C39.4148 29.8048 38.8104 32.0598 37.4406 33.5224C36.359 34.6772 34.9592 35.4854 33.4184 35.8446C33.2258 35.8896 33.0304 35.9242 32.83 35.9488C30.9998 36.1746 28.7668 35.5762 24.7016 34.487C20.1914 33.2784 17.9363 32.6742 16.4737 31.3044C15.3189 30.2228 14.5107 28.823 14.1515 27.282C13.6964 25.3304 14.3007 23.0754 15.5092 18.5653L16.5444 14.7015C16.7182 14.0529 16.8795 13.4509 17.0324 12.8912C17.9426 9.55914 18.5542 7.72596 19.727 6.47374C20.8086 5.3189 22.2084 4.51074 23.7494 4.15146C25.7008 3.69642 27.956 4.30066 32.4662 5.50916C36.9762 6.71766 39.2314 7.3219 40.694 8.69174C41.8488 9.77336 42.657 11.1731 43.0162 12.7141C43.338 14.0942 43.13 15.6261 42.5532 18" fill="white"/>
<path d="M40.6232 25.2946C39.4148 29.8048 38.8104 32.0598 37.4406 33.5224C36.359 34.6772 34.9592 35.4854 33.4184 35.8446C33.2258 35.8896 33.0304 35.9242 32.83 35.9488C30.9998 36.1746 28.7668 35.5762 24.7016 34.487C20.1914 33.2784 17.9363 32.6742 16.4737 31.3044C15.3189 30.2228 14.5107 28.823 14.1515 27.282C13.6964 25.3304 14.3007 23.0754 15.5092 18.5653L16.5444 14.7015C16.7182 14.0529 16.8795 13.4509 17.0324 12.8912C17.9426 9.55914 18.5542 7.72596 19.727 6.47374C20.8086 5.3189 22.2084 4.51074 23.7494 4.15146C25.7008 3.69642 27.956 4.30066 32.4662 5.50916C36.9762 6.71766 39.2314 7.3219 40.694 8.69174C41.8488 9.77336 42.657 11.1731 43.0162 12.7141C43.338 14.0942 43.13 15.6261 42.5532 18" stroke="#1C274C" stroke-width="3" stroke-linecap="round"/>
</g>
<defs>
<clipPath id="clip0_135_3">
<rect width="48" height="48" fill="white"/>
</clipPath>
</defs>
</svg>
